<svg version="1.1" id="Layer_1" xmlns="http://www.w3.org/2000/svg" xmlns:xlink="http://www.w3.org/1999/xlink" x="0px" y="0px"
	 width="100%" viewBox="0 0 96 96" enable-background="new 0 0 96 96" xml:space="preserve">
<path fill="#000000" opacity="1.000000" stroke="none" 
	d="
M1.000000,65.000000 
	C1.000000,43.708405 1.000000,22.416807 1.000000,1.062605 
	C32.895557,1.062605 64.791260,1.062605 97.000000,1.062605 
	C97.000000,22.019859 97.000000,43.041271 96.719238,64.869858 
	C93.671478,64.481697 90.904480,63.286350 88.518753,62.255718 
	C88.682335,58.908020 89.047279,55.658127 88.954460,52.421364 
	C88.784622,46.498371 88.096313,40.583458 88.088547,34.664570 
	C88.081215,29.079042 88.705215,23.494432 88.985466,17.906107 
	C89.148483,14.655328 87.549629,12.649072 84.261955,13.075761 
	C80.119614,13.613374 76.058693,14.752469 71.938560,15.499231 
	C70.194550,15.815329 68.142700,16.415512 66.651466,15.824703 
	C56.311554,11.728168 45.744293,11.974698 35.286961,14.503078 
	C31.016199,15.535666 27.463341,17.201611 23.189262,14.280056 
	C21.261009,12.961994 18.157335,13.122192 15.574862,13.051114 
	C9.588867,12.886359 9.009444,13.550710 9.004218,19.570543 
	C8.991791,33.886078 9.000216,48.201630 9.000216,62.598660 
	C6.164538,63.449814 3.582269,64.224907 1.000000,65.000000 
z"/>
<path fill="#000000" opacity="1.000000" stroke="none" 
	d="
M97.000000,69.000000 
	C97.000000,78.306213 97.000000,87.612427 97.000000,96.959320 
	C65.120140,96.959320 33.240223,96.959320 1.000000,96.959320 
	C1.000000,88.315765 1.000000,79.626541 1.257159,70.101486 
	C4.859569,68.680489 8.204818,68.095322 11.706685,67.482765 
	C12.393335,68.824501 13.200741,70.402191 13.733664,71.443535 
	C11.587694,73.767410 9.648937,75.866890 6.496893,79.280243 
	C9.648654,79.651955 12.266120,80.621941 12.839907,79.920403 
	C16.412165,75.552803 19.681913,76.647240 23.235756,79.703423 
	C23.940195,80.309219 24.932426,80.573799 25.776247,81.025085 
	C35.429363,86.187630 45.931942,85.129745 56.233326,84.918892 
	C64.901489,84.741470 72.778526,81.789978 79.593063,76.262299 
	C87.326515,81.949867 87.326515,81.949867 89.778801,77.619316 
	C87.476662,75.856995 85.186356,74.103729 82.789429,72.268845 
	C84.730911,69.314682 86.480827,66.945259 90.408607,68.065796 
	C92.522530,68.668869 94.797623,68.706985 97.000000,69.000000 
z"/>
<path fill="#F47429" opacity="1.000000" stroke="none" 
	d="
M97.000000,68.600006 
	C94.797623,68.706985 92.522530,68.668869 90.408607,68.065796 
	C86.480827,66.945259 84.730911,69.314682 82.789429,72.268845 
	C85.186356,74.103729 87.476662,75.856995 89.778801,77.619316 
	C87.326515,81.949867 87.326515,81.949867 79.593063,76.262299 
	C72.778526,81.789978 64.901489,84.741470 56.233326,84.918892 
	C45.931942,85.129745 35.429363,86.187630 25.776247,81.025085 
	C24.932426,80.573799 23.940195,80.309219 23.235756,79.703423 
	C19.681913,76.647240 16.412165,75.552803 12.839907,79.920403 
	C12.266120,80.621941 9.648654,79.651955 6.496893,79.280243 
	C9.648937,75.866890 11.587694,73.767410 13.733664,71.443535 
	C13.200741,70.402191 12.393335,68.824501 11.706685,67.482765 
	C8.204818,68.095322 4.859569,68.680489 1.257159,69.632828 
	C1.000000,68.611107 1.000000,67.222221 1.000000,65.416664 
	C3.582269,64.224907 6.164538,63.449814 9.000216,62.598660 
	C9.000216,48.201630 8.991791,33.886078 9.004218,19.570543 
	C9.009444,13.550710 9.588867,12.886359 15.574862,13.051114 
	C18.157335,13.122192 21.261009,12.961994 23.189262,14.280056 
	C27.463341,17.201611 31.016199,15.535666 35.286961,14.503078 
	C45.744293,11.974698 56.311554,11.728168 66.651466,15.824703 
	C68.142700,16.415512 70.194550,15.815329 71.938560,15.499231 
	C76.058693,14.752469 80.119614,13.613374 84.261955,13.075761 
	C87.549629,12.649072 89.148483,14.655328 88.985466,17.906107 
	C88.705215,23.494432 88.081215,29.079042 88.088547,34.664570 
	C88.096313,40.583458 88.784622,46.498371 88.954460,52.421364 
	C89.047279,55.658127 88.682335,58.908020 88.518753,62.255718 
	C90.904480,63.286350 93.671478,64.481697 96.719238,65.338516 
	C97.000000,66.066673 97.000000,67.133339 97.000000,68.600006 
M82.569626,35.899658 
	C83.522751,30.047424 84.475883,24.195189 85.429008,18.342953 
	C84.929451,17.915844 84.429886,17.488733 83.930321,17.061623 
	C80.062019,18.434120 76.240845,19.970324 72.303673,21.103537 
	C70.578934,21.599957 68.388702,21.853813 66.799744,21.227945 
	C54.973621,16.569820 43.188850,16.033899 31.482353,21.301714 
	C29.177551,22.338854 27.737909,22.309286 25.407946,21.166559 
	C21.719801,19.357716 17.534113,18.563345 13.558960,17.339697 
	C13.144317,17.825432 12.729673,18.311165 12.315030,18.796900 
	C16.658806,32.683708 13.327620,46.843403 14.041384,59.420376 
	C17.339409,61.102398 19.584528,62.247425 21.829649,63.392460 
	C20.336582,64.659302 18.843517,65.926147 16.773653,67.682396 
	C18.282475,68.129807 19.642838,68.616074 21.042515,68.923134 
	C22.256281,69.189415 24.433380,68.981537 24.574110,69.458473 
	C24.938505,70.693420 24.414125,72.190613 24.146040,74.392456 
	C26.332735,75.377922 29.142405,77.453651 32.173607,77.854614 
	C40.437119,78.947685 48.820538,80.044342 57.104477,79.737320 
	C62.211250,79.548050 69.410316,78.236137 71.685150,74.794426 
	C74.145844,71.071533 75.816589,68.111420 80.217255,67.151131 
	C80.393097,67.112755 80.464081,66.593872 80.298386,67.001755 
	C78.775360,65.760506 77.432243,64.665878 76.089127,63.571259 
	C77.608360,62.712517 79.276787,62.035248 80.604553,60.943619 
	C81.913292,59.867649 83.878334,58.329975 83.825294,57.067554 
	C83.537987,50.229012 82.714180,43.413010 82.569626,35.899658 
z"/>
<path fill="#000000" opacity="1.000000" stroke="none" 
	d="
M82.322418,36.244450 
	C82.714180,43.413010 83.537987,50.229012 83.825294,57.067554 
	C83.878334,58.329975 81.913292,59.867649 80.604553,60.943619 
	C79.276787,62.035248 77.608360,62.712517 76.089127,63.571259 
	C77.432243,64.665878 78.775360,65.760506 80.298386,67.001755 
	C80.464081,66.593872 80.393097,67.112755 80.217255,67.151131 
	C75.816589,68.111420 74.145844,71.071533 71.685150,74.794426 
	C69.410316,78.236137 62.211250,79.548050 57.104477,79.737320 
	C48.820538,80.044342 40.437119,78.947685 32.173607,77.854614 
	C29.142405,77.453651 26.332735,75.377922 24.146040,74.392456 
	C24.414125,72.190613 24.938505,70.693420 24.574110,69.458473 
	C24.433380,68.981537 22.256281,69.189415 21.042515,68.923134 
	C19.642838,68.616074 18.282475,68.129807 16.773653,67.682396 
	C18.843517,65.926147 20.336582,64.659302 21.829647,63.392456 
	C19.584528,62.247425 17.339409,61.102398 14.041384,59.420376 
	C13.327620,46.843403 16.658806,32.683708 12.315030,18.796900 
	C12.729673,18.311165 13.144317,17.825432 13.558960,17.339697 
	C17.534113,18.563345 21.719801,19.357716 25.407946,21.166559 
	C27.737909,22.309286 29.177551,22.338854 31.482353,21.301714 
	C43.188850,16.033899 54.973621,16.569820 66.799744,21.227945 
	C68.388702,21.853813 70.578934,21.599957 72.303673,21.103537 
	C76.240845,19.970324 80.062019,18.434120 83.930321,17.061623 
	C84.429886,17.488733 84.929451,17.915844 85.429008,18.342953 
	C84.475883,24.195189 83.522751,30.047424 82.322418,36.244450 
M29.025620,49.131721 
	C29.018244,51.286781 28.333794,53.768654 29.176048,55.513615 
	C30.212912,57.661774 32.400059,60.466949 34.314816,60.651093 
	C36.386230,60.850304 40.291492,58.656101 40.612812,56.973980 
	C41.324394,53.248810 42.668636,48.480492 38.141590,45.755566 
	C34.474297,43.548149 31.591852,45.351837 29.025620,49.131721 
M62.583706,45.002346 
	C57.422493,46.360691 56.007416,48.380081 57.242653,55.526527 
	C57.602016,57.605637 60.558979,60.080830 62.820225,60.785076 
	C66.088921,61.803085 68.428123,59.394661 68.950478,56.059452 
	C70.062920,48.956593 68.668915,46.374344 62.583706,45.002346 
M54.434818,62.126518 
	C51.565269,61.786797 48.690121,61.189533 45.829311,61.251728 
	C44.871311,61.272556 43.448269,62.839966 43.148170,63.947182 
	C42.826828,65.132751 43.369209,67.677986 43.897152,67.781548 
	C46.842285,68.359230 49.998123,68.882355 52.860348,68.312065 
	C53.867252,68.111443 54.246712,64.761749 54.434818,62.126518 
z"/>
<path fill="#F47429" opacity="1.000000" stroke="none" 
	d="
M29.118799,48.719635 
	C31.591852,45.351837 34.474297,43.548149 38.141590,45.755566 
	C42.668636,48.480492 41.324394,53.248810 40.612812,56.973980 
	C40.291492,58.656101 36.386230,60.850304 34.314816,60.651093 
	C32.400059,60.466949 30.212912,57.661774 29.176048,55.513615 
	C28.333794,53.768654 29.018244,51.286781 29.118799,48.719635 
z"/>
<path fill="#F47429" opacity="1.000000" stroke="none" 
	d="
M62.995674,45.002335 
	C68.668915,46.374344 70.062920,48.956593 68.950478,56.059452 
	C68.428123,59.394661 66.088921,61.803085 62.820225,60.785076 
	C60.558979,60.080830 57.602016,57.605637 57.242653,55.526527 
	C56.007416,48.380081 57.422493,46.360691 62.995674,45.002335 
z"/>
<path fill="#F4742A" opacity="1.000000" stroke="none" 
	d="
M54.673740,62.488216 
	C54.246712,64.761749 53.867252,68.111443 52.860348,68.312065 
	C49.998123,68.882355 46.842285,68.359230 43.897152,67.781548 
	C43.369209,67.677986 42.826828,65.132751 43.148170,63.947182 
	C43.448269,62.839966 44.871311,61.272556 45.829311,61.251728 
	C48.690121,61.189533 51.565269,61.786797 54.673740,62.488216 
z"/>
</svg>