<svg version="1.1" id="Layer_1" xmlns="http://www.w3.org/2000/svg" xmlns:xlink="http://www.w3.org/1999/xlink" x="0px" y="0px"
	 width="100%" viewBox="0 0 100 100" enable-background="new 0 0 100 100" xml:space="preserve">
<path fill="#000000" opacity="1.000000" stroke="none" 
	d="
M55.000000,101.000000 
	C36.666668,101.000000 18.833340,101.000000 1.000007,101.000000 
	C1.000005,67.666679 1.000005,34.333351 1.000002,1.000021 
	C34.333317,1.000014 67.666634,1.000014 100.999969,1.000007 
	C100.999977,34.333313 100.999977,67.666626 100.999985,100.999969 
	C85.833336,101.000000 70.666664,101.000000 55.000000,101.000000 
M87.467834,56.052998 
	C92.952972,50.080574 92.750694,42.675854 91.607094,35.603355 
	C90.635330,29.593630 88.242050,23.676529 82.745720,19.956196 
	C68.219872,10.123997 51.916435,8.584173 35.604324,12.451692 
	C18.701138,16.459351 7.545679,23.859713 9.923493,45.610672 
	C10.801345,53.640774 14.417185,58.429852 22.350542,60.647564 
	C23.180492,64.371712 23.975838,67.846077 24.725452,71.330292 
	C25.506823,74.962082 26.699343,78.577766 26.905561,82.245842 
	C27.330685,89.807655 33.144257,93.224663 39.926140,89.628387 
	C40.741447,89.196037 41.941376,89.364761 42.949039,89.440689 
	C47.600864,89.791168 52.333965,90.897018 56.862709,90.330750 
	C59.411324,90.012070 61.402462,89.156891 64.081879,90.425781 
	C68.526360,92.530525 74.172714,89.176651 74.985962,84.495056 
	C76.396660,76.374275 77.844612,68.259979 79.010056,61.655411 
	C82.405449,59.569603 84.731461,58.140720 87.467834,56.052998 
z"/>
<path fill="#F47429" opacity="1.000000" stroke="none" 
	d="
M87.262657,56.382416 
	C84.731461,58.140720 82.405449,59.569603 79.010056,61.655411 
	C77.844612,68.259979 76.396660,76.374275 74.985962,84.495056 
	C74.172714,89.176651 68.526360,92.530525 64.081879,90.425781 
	C61.402462,89.156891 59.411324,90.012070 56.862709,90.330750 
	C52.333965,90.897018 47.600864,89.791168 42.949039,89.440689 
	C41.941376,89.364761 40.741447,89.196037 39.926140,89.628387 
	C33.144257,93.224663 27.330685,89.807655 26.905561,82.245842 
	C26.699343,78.577766 25.506823,74.962082 24.725452,71.330292 
	C23.975838,67.846077 23.180492,64.371712 22.350542,60.647564 
	C14.417185,58.429852 10.801345,53.640774 9.923493,45.610672 
	C7.545679,23.859713 18.701138,16.459351 35.604324,12.451692 
	C51.916435,8.584173 68.219872,10.123997 82.745720,19.956196 
	C88.242050,23.676529 90.635330,29.593630 91.607094,35.603355 
	C92.750694,42.675854 92.952972,50.080574 87.262657,56.382416 
M36.888405,17.060520 
	C35.389130,17.676399 33.918037,18.375322 32.386196,18.895241 
	C17.983099,23.783739 13.883644,29.798862 15.001911,44.478695 
	C15.457043,50.453350 18.052710,53.966473 22.873123,55.132046 
	C23.477764,39.242966 23.477764,39.242966 28.150156,39.338829 
	C28.150156,48.407135 28.150156,57.477421 28.150156,66.692146 
	C32.187019,62.907497 35.742218,59.882050 38.908985,56.493584 
	C40.904484,54.358376 43.550182,51.790195 43.779922,49.225925 
	C44.762363,38.260113 44.955162,27.223551 45.455944,15.754719 
	C42.202347,16.282866 39.968185,16.645529 36.888405,17.060520 
M57.316685,46.780071 
	C58.823215,49.960011 59.724537,53.684292 61.979336,56.191216 
	C65.291466,59.873703 69.570671,62.686371 73.846191,66.205727 
	C73.846191,57.336067 73.846191,48.337467 73.846191,39.338867 
	C74.353828,39.096703 74.861465,38.854538 75.369102,38.612373 
	C80.184158,42.890152 78.611031,49.609169 79.246979,57.187737 
	C82.025009,53.996433 84.388771,52.265995 85.389481,49.947289 
	C88.424950,42.913937 87.706383,35.814053 83.753883,29.319960 
	C77.752914,19.460159 67.233162,18.497499 57.048523,15.797206 
	C57.048523,26.298544 57.048523,36.112782 57.316685,46.780071 
M61.947178,62.461391 
	C56.256432,59.007057 52.686417,54.489685 52.924889,47.300190 
	C53.233700,37.990131 53.087608,28.660351 52.905838,19.343576 
	C52.878170,17.925533 51.601906,16.531849 50.903149,15.126898 
	C50.268757,15.367857 49.634361,15.608816 48.999969,15.849775 
	C48.999969,17.432978 48.999969,19.016180 48.999966,20.599382 
	C48.999950,28.421789 48.457157,36.292042 49.141392,44.054131 
	C49.943138,53.149265 46.031158,59.064980 38.799484,63.690350 
	C33.424484,67.128197 30.020391,76.842026 32.079029,82.595505 
	C32.532669,83.863342 33.689346,85.480301 34.800014,85.737610 
	C35.839020,85.978310 37.365379,84.784966 38.469418,83.948456 
	C41.661957,81.529549 44.749832,78.972504 47.878792,76.469688 
	C48.201313,76.809174 48.523834,77.148659 48.846355,77.488144 
	C48.846355,75.525452 48.846355,73.562752 48.846355,71.525299 
	C47.770161,71.099953 46.429680,70.965942 45.778759,70.225639 
	C44.631580,68.920929 43.135284,67.203529 43.216431,65.738174 
	C43.299801,64.232765 44.945934,61.748016 46.171261,61.577011 
	C49.485886,61.114426 53.003517,61.329380 56.303745,61.975136 
	C57.413387,62.192261 58.766735,64.493355 58.811913,65.880920 
	C58.856728,67.257492 57.605999,68.884590 56.523376,70.020508 
	C55.724499,70.858711 54.282673,71.084122 53.182171,71.558899 
	C53.182171,73.681572 53.182171,75.643944 53.182171,77.606323 
	C53.476162,77.316368 53.770157,77.026413 54.064148,76.736458 
	C57.195496,79.139610 60.269581,81.623558 63.487698,83.904274 
	C64.695297,84.760101 66.857635,86.012550 67.495262,85.557526 
	C68.735489,84.672493 69.691498,82.776276 69.912613,81.180756 
	C70.942940,73.746063 68.530190,67.575012 61.947178,62.461391 
M55.129105,83.668839 
	C51.987259,83.668839 48.845417,83.668839 45.703571,83.668839 
	C49.981087,86.808929 53.675114,86.596489 55.129105,83.668839 
z"/>
<path fill="#000000" opacity="1.000000" stroke="none" 
	d="
M37.311211,17.034357 
	C39.968185,16.645529 42.202347,16.282866 45.455944,15.754719 
	C44.955162,27.223551 44.762363,38.260113 43.779922,49.225925 
	C43.550182,51.790195 40.904484,54.358376 38.908985,56.493584 
	C35.742218,59.882050 32.187019,62.907497 28.150156,66.692146 
	C28.150156,57.477421 28.150156,48.407135 28.150156,39.338829 
	C23.477764,39.242966 23.477764,39.242966 22.873123,55.132046 
	C18.052710,53.966473 15.457043,50.453350 15.001911,44.478695 
	C13.883644,29.798862 17.983099,23.783739 32.386196,18.895241 
	C33.918037,18.375322 35.389130,17.676399 37.311211,17.034357 
M38.287136,50.988873 
	C42.482292,50.260731 41.159763,46.906429 40.604637,44.773067 
	C40.357147,43.821960 37.185139,42.849243 35.707588,43.247707 
	C34.519211,43.568184 33.396137,45.847031 33.103592,47.417084 
	C32.488361,50.718945 34.820381,51.194370 38.287136,50.988873 
z"/>
<path fill="#000000" opacity="1.000000" stroke="none" 
	d="
M57.182602,46.353546 
	C57.048523,36.112782 57.048523,26.298544 57.048523,15.797206 
	C67.233162,18.497499 77.752914,19.460159 83.753883,29.319960 
	C87.706383,35.814053 88.424950,42.913937 85.389481,49.947289 
	C84.388771,52.265995 82.025009,53.996433 79.246979,57.187737 
	C78.611031,49.609169 80.184158,42.890152 75.369102,38.612373 
	C74.861465,38.854538 74.353828,39.096703 73.846191,39.338867 
	C73.846191,48.337467 73.846191,57.336067 73.846191,66.205727 
	C69.570671,62.686371 65.291466,59.873703 61.979336,56.191216 
	C59.724537,53.684292 58.823215,49.960011 57.182602,46.353546 
M64.570915,50.997940 
	C67.183731,51.195072 69.513115,50.715397 68.896568,47.415108 
	C68.603340,45.845463 67.478302,43.568432 66.289139,43.247959 
	C64.812256,42.849949 61.640652,43.824741 61.394421,44.774967 
	C60.841537,46.908604 59.517059,50.264488 64.570915,50.997940 
z"/>
<path fill="#000000" opacity="1.000000" stroke="none" 
	d="
M62.202934,62.718292 
	C68.530190,67.575012 70.942940,73.746063 69.912613,81.180756 
	C69.691498,82.776276 68.735489,84.672493 67.495262,85.557526 
	C66.857635,86.012550 64.695297,84.760101 63.487698,83.904274 
	C60.269581,81.623558 57.195496,79.139610 54.064148,76.736458 
	C53.770157,77.026413 53.476162,77.316368 53.182171,77.606323 
	C53.182171,75.643944 53.182171,73.681572 53.182171,71.558899 
	C54.282673,71.084122 55.724499,70.858711 56.523376,70.020508 
	C57.605999,68.884590 58.856728,67.257492 58.811913,65.880920 
	C58.766735,64.493355 57.413387,62.192261 56.303745,61.975136 
	C53.003517,61.329380 49.485886,61.114426 46.171261,61.577011 
	C44.945934,61.748016 43.299801,64.232765 43.216431,65.738174 
	C43.135284,67.203529 44.631580,68.920929 45.778759,70.225639 
	C46.429680,70.965942 47.770161,71.099953 48.846355,71.525299 
	C48.846355,73.562752 48.846355,75.525452 48.846355,77.488144 
	C48.523834,77.148659 48.201313,76.809174 47.878792,76.469688 
	C44.749832,78.972504 41.661957,81.529549 38.469418,83.948456 
	C37.365379,84.784966 35.839020,85.978310 34.800014,85.737610 
	C33.689346,85.480301 32.532669,83.863342 32.079029,82.595505 
	C30.020391,76.842026 33.424484,67.128197 38.799484,63.690350 
	C46.031158,59.064980 49.943138,53.149265 49.141392,44.054131 
	C48.457157,36.292042 48.999950,28.421789 48.999966,20.599382 
	C48.999969,19.016180 48.999969,17.432978 48.999969,15.849775 
	C49.634361,15.608816 50.268757,15.367857 50.903149,15.126898 
	C51.601906,16.531849 52.878170,17.925533 52.905838,19.343576 
	C53.087608,28.660351 53.233700,37.990131 52.924889,47.300190 
	C52.686417,54.489685 56.256432,59.007057 62.202934,62.718292 
z"/>
<path fill="#000000" opacity="1.000000" stroke="none" 
	d="
M55.460106,83.844055 
	C53.675114,86.596489 49.981087,86.808929 45.703571,83.668839 
	C48.845417,83.668839 51.987259,83.668839 55.460106,83.844055 
z"/>
<path fill="#F47429" opacity="1.000000" stroke="none" 
	d="
M37.859356,50.993454 
	C34.820381,51.194370 32.488361,50.718945 33.103592,47.417084 
	C33.396137,45.847031 34.519211,43.568184 35.707588,43.247707 
	C37.185139,42.849243 40.357147,43.821960 40.604637,44.773067 
	C41.159763,46.906429 42.482292,50.260731 37.859356,50.993454 
z"/>
<path fill="#F47429" opacity="1.000000" stroke="none" 
	d="
M64.143188,50.993217 
	C59.517059,50.264488 60.841537,46.908604 61.394421,44.774967 
	C61.640652,43.824741 64.812256,42.849949 66.289139,43.247959 
	C67.478302,43.568432 68.603340,45.845463 68.896568,47.415108 
	C69.513115,50.715397 67.183731,51.195072 64.143188,50.993217 
z"/>
</svg>