<svg xmlns="http://www.w3.org/2000/svg" xmlns:xlink="http://www.w3.org/1999/xlink" width="300" zoomAndPan="magnify" viewBox="0 0 224.87999 225" height="300" preserveAspectRatio="xMidYMid meet" version="1.2"><defs><clipPath id="00844e8da0"><path d="M 32.445312 35.332031 L 192.433594 35.332031 L 192.433594 61.40625 L 32.445312 61.40625 Z M 32.445312 35.332031 "/></clipPath><clipPath id="4e91cf3a4a"><path d="M 32.445312 99.289062 L 192.433594 99.289062 L 192.433594 125.363281 L 32.445312 125.363281 Z M 32.445312 99.289062 "/></clipPath><clipPath id="eac90145ef"><path d="M 32.445312 163.59375 L 192.433594 163.59375 L 192.433594 189.667969 L 32.445312 189.667969 Z M 32.445312 163.59375 "/></clipPath></defs><g id="dc7606a01d"><g clip-rule="nonzero" clip-path="url(#00844e8da0)"><path style=" stroke:none;fill-rule:nonzero;fill:#333333;fill-opacity:1;" d="M 32.445312 35.332031 L 192.460938 35.332031 L 192.460938 61.40625 L 32.445312 61.40625 Z M 32.445312 35.332031 "/></g><g clip-rule="nonzero" clip-path="url(#4e91cf3a4a)"><path style=" stroke:none;fill-rule:nonzero;fill:#333333;fill-opacity:1;" d="M 32.445312 99.289062 L 192.460938 99.289062 L 192.460938 125.363281 L 32.445312 125.363281 Z M 32.445312 99.289062 "/></g><g clip-rule="nonzero" clip-path="url(#eac90145ef)"><path style=" stroke:none;fill-rule:nonzero;fill:#333333;fill-opacity:1;" d="M 32.445312 163.59375 L 192.460938 163.59375 L 192.460938 189.667969 L 32.445312 189.667969 Z M 32.445312 163.59375 "/></g></g></svg>