<svg version="1.1" id="Layer_1" xmlns="http://www.w3.org/2000/svg" xmlns:xlink="http://www.w3.org/1999/xlink" x="0px" y="0px"
	 width="100%" viewBox="0 0 90 90" enable-background="new 0 0 90 90" xml:space="preserve">
<path fill="#000000" opacity="1.000000" stroke="none" 
	d="
M55.000000,91.000000 
	C36.666668,91.000000 18.833340,91.000000 1.000007,91.000000 
	C1.000005,61.000008 1.000005,31.000017 1.000002,1.000019 
	C30.999987,1.000013 60.999973,1.000013 90.999969,1.000006 
	C90.999985,30.999979 90.999985,60.999958 90.999992,90.999969 
	C79.166664,91.000000 67.333336,91.000000 55.000000,91.000000 
M62.491482,78.999939 
	C66.153870,78.999741 69.821114,78.881065 73.477348,79.031013 
	C77.545860,79.197861 79.106598,77.366920 79.042374,73.371681 
	C78.903252,64.717300 78.984444,56.059082 79.016586,47.402584 
	C79.021431,46.097210 78.866409,43.865906 79.430656,43.634174 
	C83.988564,41.762241 82.072243,38.072392 81.572243,35.348549 
	C80.404305,28.985916 78.512695,22.758589 77.009117,16.453819 
	C76.448029,14.101048 75.515450,12.908290 72.726349,12.930088 
	C54.914791,13.069296 37.100868,12.933407 19.290382,13.129781 
	C17.870859,13.145432 15.602728,14.723214 15.209243,16.023127 
	C13.236865,22.539064 11.635453,29.177525 10.178141,35.833027 
	C9.729732,37.880894 9.413129,41.582630 10.293235,42.024765 
	C14.958412,44.368374 12.763396,48.287003 12.901398,51.433849 
	C13.214718,58.578472 13.166318,65.751488 12.939967,72.902672 
	C12.797476,77.404434 14.521596,79.115616 19.044146,79.061638 
	C33.192368,78.892799 47.343876,78.999817 62.491482,78.999939 
z"/>
<path fill="#F47429" opacity="1.000000" stroke="none" 
	d="
M61.992798,78.999939 
	C47.343876,78.999817 33.192368,78.892799 19.044146,79.061638 
	C14.521596,79.115616 12.797476,77.404434 12.939967,72.902672 
	C13.166318,65.751488 13.214718,58.578472 12.901398,51.433849 
	C12.763396,48.287003 14.958412,44.368374 10.293235,42.024765 
	C9.413129,41.582630 9.729732,37.880894 10.178141,35.833027 
	C11.635453,29.177525 13.236865,22.539064 15.209243,16.023127 
	C15.602728,14.723214 17.870859,13.145432 19.290382,13.129781 
	C37.100868,12.933407 54.914791,13.069296 72.726349,12.930088 
	C75.515450,12.908290 76.448029,14.101048 77.009117,16.453819 
	C78.512695,22.758589 80.404305,28.985916 81.572243,35.348549 
	C82.072243,38.072392 83.988564,41.762241 79.430656,43.634174 
	C78.866409,43.865906 79.021431,46.097210 79.016586,47.402584 
	C78.984444,56.059082 78.903252,64.717300 79.042374,73.371681 
	C79.106598,77.366920 77.545860,79.197861 73.477348,79.031013 
	C69.821114,78.881065 66.153870,78.999741 61.992798,78.999939 
M27.739132,42.976452 
	C24.958578,42.976452 22.178024,42.976452 19.300503,42.976452 
	C19.300503,53.226398 19.300503,62.944027 19.300503,72.653763 
	C26.324299,72.653763 33.042248,72.653763 40.000889,72.653763 
	C40.000889,67.332123 40.113930,62.351517 39.966007,57.378670 
	C39.842125,53.214085 41.865768,51.938019 45.755184,51.929470 
	C49.682625,51.920841 52.189590,52.804733 52.037621,57.403347 
	C51.869389,62.494011 51.999165,67.594521 51.999165,72.643860 
	C59.344406,72.643860 66.062843,72.643860 72.608894,72.643860 
	C72.608894,62.566460 72.608894,52.848904 72.608894,42.628887 
	C65.670776,44.675644 61.188988,41.562080 57.222698,36.793633 
	C53.860569,32.751541 50.156048,28.994253 46.152962,24.619022 
	C39.639549,31.367521 34.096466,37.110668 27.739132,42.976452 
z"/>
<path fill="#000000" opacity="1.000000" stroke="none" 
	d="
M28.146259,42.915134 
	C34.096466,37.110668 39.639549,31.367521 46.152962,24.619022 
	C50.156048,28.994253 53.860569,32.751541 57.222698,36.793633 
	C61.188988,41.562080 65.670776,44.675644 72.608894,42.628887 
	C72.608894,52.848904 72.608894,62.566460 72.608894,72.643860 
	C66.062843,72.643860 59.344406,72.643860 51.999165,72.643860 
	C51.999165,67.594521 51.869389,62.494011 52.037621,57.403347 
	C52.189590,52.804733 49.682625,51.920841 45.755184,51.929470 
	C41.865768,51.938019 39.842125,53.214085 39.966007,57.378670 
	C40.113930,62.351517 40.000889,67.332123 40.000889,72.653763 
	C33.042248,72.653763 26.324299,72.653763 19.300503,72.653763 
	C19.300503,62.944027 19.300503,53.226398 19.300503,42.976452 
	C22.178024,42.976452 24.958578,42.976452 28.146259,42.915134 
M33.999496,57.426231 
	C33.999496,55.693935 33.999496,53.961639 33.999496,52.346104 
	C30.611115,52.346104 27.912331,52.346104 25.351406,52.346104 
	C25.351406,55.399414 25.351406,58.098202 25.351406,60.992794 
	C27.659485,60.992794 29.678257,61.276283 31.549957,60.874554 
	C32.502113,60.670189 33.189671,59.233047 33.999496,57.426231 
M64.350113,52.003132 
	C62.294674,52.003132 60.239231,52.003132 58.367172,52.003132 
	C58.367172,55.431717 58.367172,58.130592 58.367172,60.627850 
	C61.441032,60.627850 64.139839,60.627850 67.869316,60.627850 
	C66.891571,57.375122 66.086784,54.697762 64.350113,52.003132 
z"/>
<path fill="#F47429" opacity="1.000000" stroke="none" 
	d="
M33.998169,57.889702 
	C33.189671,59.233047 32.502113,60.670189 31.549957,60.874554 
	C29.678257,61.276283 27.659485,60.992794 25.351406,60.992794 
	C25.351406,58.098202 25.351406,55.399414 25.351406,52.346104 
	C27.912331,52.346104 30.611115,52.346104 33.999496,52.346104 
	C33.999496,53.961639 33.999496,55.693935 33.998169,57.889702 
z"/>
<path fill="#F47429" opacity="1.000000" stroke="none" 
	d="
M64.816055,52.011765 
	C66.086784,54.697762 66.891571,57.375122 67.869316,60.627850 
	C64.139839,60.627850 61.441032,60.627850 58.367172,60.627850 
	C58.367172,58.130592 58.367172,55.431717 58.367172,52.003132 
	C60.239231,52.003132 62.294674,52.003132 64.816055,52.011765 
z"/>
</svg>