<svg version="1.1" id="Layer_1" xmlns="http://www.w3.org/2000/svg" xmlns:xlink="http://www.w3.org/1999/xlink" x="0px" y="0px"
	 width="100%" viewBox="0 0 90 90" enable-background="new 0 0 90 90" xml:space="preserve">
<path fill="#000000" opacity="1.000000" stroke="none" 
	d="
M58.000000,91.000000 
	C38.666668,91.000000 19.833334,91.000000 1.000000,91.000000 
	C1.000000,61.000000 1.000000,31.000000 1.000000,1.000000 
	C31.000000,1.000000 61.000000,1.000000 91.000000,1.000000 
	C91.000000,31.000000 91.000000,61.000000 91.000000,91.000000 
	C80.166664,91.000000 69.333336,91.000000 58.000000,91.000000 
M54.469250,68.022011 
	C58.098904,61.403587 61.862637,54.853394 65.284241,48.129108 
	C66.454506,45.829250 66.766785,43.092808 67.680626,39.800980 
	C60.448261,39.800980 54.249672,39.800980 48.239185,39.800980 
	C49.726791,28.600433 51.146629,17.910109 52.580540,7.113869 
	C49.671124,7.113869 48.015957,7.113869 46.596386,7.113869 
	C40.001122,19.143421 33.416512,30.938622 27.086824,42.869072 
	C25.721733,45.442051 25.275518,48.502541 24.171778,52.102570 
	C31.471115,52.102570 37.698624,52.102570 43.763565,52.102570 
	C42.274040,63.315105 40.848351,74.047127 39.405918,84.905182 
	C42.202965,84.905182 43.859455,84.905182 45.627594,84.905182 
	C48.438896,79.468216 51.235558,74.059555 54.469250,68.022011 
M23.031088,25.459801 
	C26.505354,23.995937 26.408106,21.545555 24.467976,19.047283 
	C22.956171,17.100557 21.227598,15.054026 19.126740,13.919990 
	C17.522509,13.054034 15.184604,13.547250 13.173066,13.435853 
	C13.342672,15.345624 12.794142,17.921768 13.824833,19.032522 
	C16.305338,21.705709 19.525585,23.692471 23.031088,25.459801 
M66.965080,70.666687 
	C69.607536,73.582993 72.128784,76.629326 74.997269,79.303139 
	C75.554329,79.822395 78.046616,79.304703 78.603859,78.522606 
	C79.306946,77.535828 79.546661,75.380501 78.919174,74.445198 
	C77.207703,71.894188 75.302490,69.095993 72.764137,67.601334 
	C70.878578,66.491066 66.973770,65.065804 66.965080,70.666687 
M72.195724,14.241495 
	C70.424149,16.353224 68.450935,18.336582 66.983322,20.641825 
	C66.420769,21.525457 66.563354,23.500557 67.213860,24.320158 
	C67.782196,25.036234 69.602165,25.216124 70.717438,24.963366 
	C76.138168,23.734848 79.399017,18.616842 78.387245,12.751471 
	C76.533806,13.083822 74.676117,13.416934 72.195724,14.241495 
M18.884886,78.645409 
	C21.635656,75.298477 26.763626,73.157532 24.624971,67.329636 
	C19.578588,65.432312 17.052366,69.207924 14.471451,72.198662 
	C13.372646,73.471939 12.739944,75.779167 12.989527,77.453423 
	C13.516381,80.987679 16.317493,78.873779 18.884886,78.645409 
z"/>
<path fill="#FFFFFF" opacity="1.000000" stroke="none" 
	d="
M54.250732,68.336456 
	C51.235558,74.059555 48.438896,79.468216 45.627594,84.905182 
	C43.859455,84.905182 42.202965,84.905182 39.405918,84.905182 
	C40.848351,74.047127 42.274040,63.315105 43.763565,52.102570 
	C37.698624,52.102570 31.471115,52.102570 24.171778,52.102570 
	C25.275518,48.502541 25.721733,45.442051 27.086824,42.869072 
	C33.416512,30.938622 40.001122,19.143421 46.596386,7.113869 
	C48.015957,7.113869 49.671124,7.113869 52.580540,7.113869 
	C51.146629,17.910109 49.726791,28.600433 48.239185,39.800980 
	C54.249672,39.800980 60.448261,39.800980 67.680626,39.800980 
	C66.766785,43.092808 66.454506,45.829250 65.284241,48.129108 
	C61.862637,54.853394 58.098904,61.403587 54.250732,68.336456 
z"/>
<path fill="#FFFFFF" opacity="1.000000" stroke="none" 
	d="
M22.739262,25.707962 
	C19.525585,23.692471 16.305338,21.705709 13.824833,19.032522 
	C12.794142,17.921768 13.342672,15.345624 13.173066,13.435853 
	C15.184604,13.547250 17.522509,13.054034 19.126740,13.919990 
	C21.227598,15.054026 22.956171,17.100557 24.467976,19.047283 
	C26.408106,21.545555 26.505354,23.995937 22.739262,25.707962 
z"/>
<path fill="#FFFFFF" opacity="1.000000" stroke="none" 
	d="
M66.756470,70.341843 
	C66.973770,65.065804 70.878578,66.491066 72.764137,67.601334 
	C75.302490,69.095993 77.207703,71.894188 78.919174,74.445198 
	C79.546661,75.380501 79.306946,77.535828 78.603859,78.522606 
	C78.046616,79.304703 75.554329,79.822395 74.997269,79.303139 
	C72.128784,76.629326 69.607536,73.582993 66.756470,70.341843 
z"/>
<path fill="#FFFFFF" opacity="1.000000" stroke="none" 
	d="
M72.507080,13.995770 
	C74.676117,13.416934 76.533806,13.083822 78.387245,12.751471 
	C79.399017,18.616842 76.138168,23.734848 70.717438,24.963366 
	C69.602165,25.216124 67.782196,25.036234 67.213860,24.320158 
	C66.563354,23.500557 66.420769,21.525457 66.983322,20.641825 
	C68.450935,18.336582 70.424149,16.353224 72.507080,13.995770 
z"/>
<path fill="#FFFFFF" opacity="1.000000" stroke="none" 
	d="
M18.549686,78.809677 
	C16.317493,78.873779 13.516381,80.987679 12.989527,77.453423 
	C12.739944,75.779167 13.372646,73.471939 14.471451,72.198662 
	C17.052366,69.207924 19.578588,65.432312 24.625137,67.329956 
	C26.763626,73.157532 21.635656,75.298477 18.549686,78.809677 
z"/>
</svg>