<svg version="1.1" id="Layer_1" xmlns="http://www.w3.org/2000/svg" xmlns:xlink="http://www.w3.org/1999/xlink" x="0px" y="0px"
	 width="100%" viewBox="0 0 100 100" enable-background="new 0 0 100 100" xml:space="preserve">
<path fill="#000000" opacity="1.000000" stroke="none" 
	d="
M55.000000,101.000000 
	C37.666668,101.000000 20.832872,100.938591 4.000517,101.066711 
	C1.498083,101.085762 0.927402,100.500175 0.935280,97.999802 
	C1.034011,66.666786 1.034007,35.333248 0.935287,4.000231 
	C0.927410,1.499949 1.499759,0.927397 4.000176,0.935277 
	C35.333191,1.034015 66.666733,1.034005 97.999748,0.935291 
	C100.499985,0.927414 101.072601,1.499695 101.064720,4.000158 
	C100.965973,35.333176 100.965988,66.666718 101.064697,97.999733 
	C101.072578,100.499931 100.503014,101.091957 97.999397,101.067345 
	C83.834084,100.928070 69.666687,101.000000 55.000000,101.000000 
z"/>
<path fill="#F47429" opacity="1.000000" stroke="none" 
	d="
M54.224632,91.260643 
	C42.485577,101.536995 25.210926,101.699005 14.104358,93.039757 
	C7.438074,87.842369 3.680602,81.042419 3.040194,72.660149 
	C2.522027,65.877884 3.064471,59.337254 6.883497,53.230740 
	C12.530806,44.200863 20.344431,39.300873 30.996758,39.011219 
	C33.656811,38.938885 36.320507,39.000401 39.315285,39.000401 
	C39.219391,36.099873 37.182991,34.381374 35.839760,32.354591 
	C31.469618,25.760574 30.829138,20.422264 33.959354,16.561813 
	C36.404408,13.546365 38.919937,12.745770 41.661339,16.170782 
	C45.128906,20.503046 48.782303,24.705212 51.976471,29.231033 
	C54.067711,32.194115 55.365910,32.234890 57.994331,29.716972 
	C61.408344,26.446501 63.366280,23.233246 63.158184,18.161783 
	C62.837856,10.355110 70.311348,3.397323 78.125786,2.972898 
	C87.069496,2.487138 94.587486,4.621643 97.927216,13.898707 
	C102.141212,25.604280 96.023224,39.510017 82.128815,38.842209 
	C76.041107,38.549610 73.894196,43.011883 70.568504,46.122585 
	C68.877831,47.703960 71.223557,48.767567 72.184479,49.543896 
	C76.118950,52.722538 80.327072,55.568005 84.196220,58.819603 
	C86.103943,60.422829 89.222916,62.120892 87.770897,65.212448 
	C86.335304,68.269005 83.530731,70.327896 79.778107,69.974129 
	C75.624046,69.582535 72.083641,67.726784 68.632790,65.405334 
	C67.095741,64.371338 65.776596,62.599380 62.910015,62.681301 
	C64.086403,73.231247 62.307415,83.086662 54.224632,91.260643 
z"/>
<path fill="#000000" opacity="1.000000" stroke="none" 
	d="
M21.853508,83.332275 
	C10.541209,73.575668 13.563622,55.355724 29.259329,51.374313 
	C31.901384,50.704124 33.883091,50.002197 35.454941,54.580906 
	C37.398262,60.241692 42.829208,64.733353 48.412647,67.503365 
	C51.459400,69.014900 51.269287,70.496971 50.666859,72.692581 
	C47.340385,84.816246 34.508942,90.859192 23.884356,84.424263 
	C23.331751,84.089569 22.707129,83.873779 21.853508,83.332275 
z"/>
<path fill="#000000" opacity="1.000000" stroke="none" 
	d="
M93.983742,24.396931 
	C91.163948,30.749250 87.160378,35.002880 79.922676,33.953846 
	C74.158058,33.118328 71.049393,36.986309 68.059723,40.598305 
	C65.244286,43.999794 63.780869,42.199932 61.496254,40.134617 
	C58.947079,37.830139 58.668175,36.252506 61.457531,33.956692 
	C65.770065,30.407209 68.582222,26.259438 68.136017,20.027136 
	C67.622871,12.859780 73.388824,8.007110 81.225937,8.014746 
	C88.636459,8.021966 93.922188,12.973400 94.001053,19.990765 
	C94.015999,21.319933 93.998627,22.649466 93.983742,24.396931 
z"/>
<path fill="#000000" opacity="1.000000" stroke="none" 
	d="
M39.689434,28.257561 
	C38.874985,25.689274 36.326218,24.014790 37.800571,19.777685 
	C50.667496,36.942303 64.700516,51.833672 81.803398,63.466347 
	C80.305748,65.546974 79.018997,64.879868 77.309990,64.150352 
	C73.515419,62.530598 70.260788,60.085243 66.815887,57.935848 
	C61.840660,54.831631 58.265942,54.976223 54.322975,59.288544 
	C51.289520,62.606155 48.751961,63.032768 45.819496,59.370323 
	C44.681782,57.949390 43.365921,56.625965 41.949852,55.482784 
	C39.306034,53.348450 39.778225,51.689751 42.021408,49.427795 
	C48.331390,43.065002 48.371109,41.263245 43.361641,33.866642 
	C42.178925,32.120331 41.065674,30.326973 39.689434,28.257561 
z"/>
<path fill="#000000" opacity="1.000000" stroke="none" 
	d="
M13.977924,56.132065 
	C8.543344,63.743355 8.668973,74.631241 14.206652,82.528427 
	C19.497110,90.073059 30.053669,93.817459 38.467754,91.133812 
	C50.423134,87.320694 55.791626,80.165443 56.032558,67.877724 
	C56.062099,66.370888 55.223419,64.438438 57.418983,63.550396 
	C60.036720,76.957695 55.436985,84.654625 44.260902,91.815651 
	C38.162830,95.722969 23.901609,94.672935 17.725765,89.417870 
	C6.400596,79.781227 5.581005,68.125076 9.875436,58.940022 
	C14.742560,48.530075 22.921999,41.853603 38.821766,44.969170 
	C29.241791,45.737846 19.926203,47.071957 13.977924,56.132065 
z"/>
</svg>