<svg version="1.1" id="Layer_1" xmlns="http://www.w3.org/2000/svg" xmlns:xlink="http://www.w3.org/1999/xlink" x="0px" y="0px"
	 width="100%" viewBox="0 0 90 90" enable-background="new 0 0 90 90" xml:space="preserve">
<path fill="#000000" opacity="1.000000" stroke="none" 
	d="
M56.000000,91.000000 
	C37.333336,91.000000 19.166674,91.000000 1.000007,91.000000 
	C1.000005,61.000008 1.000005,31.000017 1.000002,1.000019 
	C30.999987,1.000013 60.999973,1.000013 90.999969,1.000006 
	C90.999985,30.999979 90.999985,60.999958 90.999992,90.999969 
	C79.500000,91.000000 68.000000,91.000000 56.000000,91.000000 
M23.133564,76.002289 
	C32.465271,77.405952 39.672394,74.200294 45.807316,66.932228 
	C51.270187,60.460354 57.699051,54.802483 63.718624,48.802452 
	C67.065338,45.466595 69.926643,41.175850 76.519783,42.607029 
	C75.580246,39.307793 74.622101,36.423737 72.748260,34.378731 
	C67.800148,28.978642 62.329376,24.059971 57.321465,18.711100 
	C54.858727,16.080692 52.367065,15.293461 49.803394,17.043135 
	C48.426559,20.684469 46.947399,24.246178 44.470131,26.863016 
	C36.682781,35.089123 28.522919,42.962734 20.501490,50.967014 
	C17.457956,54.004040 15.530919,57.506931 16.010523,61.959053 
	C16.586113,67.302208 15.935675,72.016068 11.148290,75.626549 
	C10.046212,76.457687 10.389610,79.205490 10.067811,81.071259 
	C12.282255,80.984520 14.748238,81.478523 16.644506,80.657181 
	C18.789858,79.727951 20.423903,77.618240 23.133564,76.002289 
M73.832191,8.276937 
	C71.666962,7.948055 69.506416,7.543468 67.329178,7.408991 
	C67.114670,7.395741 66.292892,9.347401 66.608658,9.862729 
	C69.090248,13.912643 66.441177,16.411438 64.334518,18.373343 
	C67.496246,21.628727 70.441742,24.661469 73.528954,27.840126 
	C74.734680,26.708055 76.169701,25.360697 77.604729,24.013340 
	C77.694588,24.378630 77.784447,24.743921 77.874306,25.109211 
	C80.239067,24.740374 82.603828,24.371536 84.968590,24.002699 
	C84.131721,21.646515 83.786087,18.917398 82.345383,17.019625 
	C80.058350,14.007043 77.039818,11.549795 73.832191,8.276937 
z"/>
<path fill="#F57428" opacity="1.000000" stroke="none" 
	d="
M22.706924,76.012070 
	C20.423903,77.618240 18.789858,79.727951 16.644506,80.657181 
	C14.748238,81.478523 12.282255,80.984520 10.067812,81.071259 
	C10.389610,79.205490 10.046212,76.457687 11.148290,75.626549 
	C15.935675,72.016068 16.586113,67.302208 16.010523,61.959053 
	C15.530919,57.506931 17.457956,54.004040 20.501490,50.967014 
	C28.522919,42.962734 36.682781,35.089123 44.470131,26.863016 
	C46.947399,24.246178 48.426559,20.684469 49.803394,17.043135 
	C52.367065,15.293461 54.858727,16.080692 57.321465,18.711100 
	C62.329376,24.059971 67.800148,28.978642 72.748260,34.378731 
	C74.622101,36.423737 75.580246,39.307793 76.519783,42.607029 
	C69.926643,41.175850 67.065338,45.466595 63.718624,48.802452 
	C57.699051,54.802483 51.270187,60.460354 45.807316,66.932228 
	C39.672394,74.200294 32.465271,77.405952 22.706924,76.012070 
M32.481689,56.025742 
	C34.493740,56.346085 36.505795,56.666428 39.388844,57.125443 
	C38.675484,54.629498 38.145184,52.774063 37.687294,51.171974 
	C39.210579,49.500217 40.662605,47.906670 41.924034,46.522293 
	C43.918518,47.144081 45.655003,47.685440 48.522083,48.579266 
	C47.681980,45.637264 47.152164,43.781876 46.565804,41.728451 
	C47.556377,40.803593 48.775467,39.884930 49.722366,38.740963 
	C52.808743,35.012241 55.812496,33.133797 59.702454,37.959785 
	C60.281689,38.678406 62.519997,38.059742 64.661064,38.059742 
	C60.716656,34.051533 57.830505,31.118700 55.205318,28.451050 
	C44.421070,39.233078 33.546169,50.105736 21.763693,61.885784 
	C23.956499,61.705410 25.812847,62.076885 26.956535,61.340904 
	C28.872179,60.108166 30.333355,58.169193 32.481689,56.025742 
z"/>
<path fill="#F57429" opacity="1.000000" stroke="none" 
	d="
M74.081467,8.567278 
	C77.039818,11.549795 80.058350,14.007043 82.345383,17.019625 
	C83.786087,18.917398 84.131721,21.646515 84.968590,24.002697 
	C82.603828,24.371536 80.239067,24.740374 77.874306,25.109211 
	C77.784447,24.743921 77.694588,24.378630 77.604729,24.013340 
	C76.169701,25.360697 74.734680,26.708055 73.528954,27.840126 
	C70.441742,24.661469 67.496246,21.628727 64.334518,18.373343 
	C66.441177,16.411438 69.090248,13.912643 66.608658,9.862729 
	C66.292892,9.347401 67.114670,7.395741 67.329178,7.408991 
	C69.506416,7.543468 71.666962,7.948055 74.081467,8.567278 
z"/>
<path fill="#000000" opacity="1.000000" stroke="none" 
	d="
M32.233738,56.276588 
	C30.333355,58.169193 28.872179,60.108166 26.956535,61.340904 
	C25.812847,62.076885 23.956499,61.705410 21.763693,61.885784 
	C33.546169,50.105736 44.421070,39.233078 55.205318,28.451050 
	C57.830505,31.118700 60.716656,34.051533 64.661064,38.059742 
	C62.519997,38.059742 60.281689,38.678406 59.702454,37.959785 
	C55.812496,33.133797 52.808743,35.012241 49.722366,38.740963 
	C48.775467,39.884930 47.556377,40.803593 46.565804,41.728451 
	C47.152164,43.781876 47.681980,45.637264 48.522083,48.579266 
	C45.655003,47.685440 43.918518,47.144081 41.924034,46.522293 
	C40.662605,47.906670 39.210579,49.500217 37.687294,51.171974 
	C38.145184,52.774063 38.675484,54.629498 39.388844,57.125443 
	C36.505795,56.666428 34.493740,56.346085 32.233738,56.276588 
z"/>
</svg>